<svg width="1200" height="860" viewBox="0 0 1200 860" fill="none" xmlns="http://www.w3.org/2000/svg">
  <rect width="1200" height="860" rx="34" fill="#111827"/>
  <rect x="36" y="36" width="1128" height="88" rx="28" fill="#1F2937"/>
  <rect x="54" y="52" width="200" height="56" rx="20" fill="#374151"/>
  <rect x="270" y="52" width="200" height="56" rx="20" fill="#2563EB"/>
  <rect x="486" y="52" width="200" height="56" rx="20" fill="#374151"/>
  <rect x="702" y="52" width="200" height="56" rx="20" fill="#374151"/>
  <text x="124" y="88" fill="#E5E7EB" font-size="30" font-family="Arial, Helvetica, sans-serif" font-weight="700">总览</text>
  <text x="346" y="88" fill="white" font-size="30" font-family="Arial, Helvetica, sans-serif" font-weight="700">Codex</text>
  <text x="570" y="88" fill="#E5E7EB" font-size="30" font-family="Arial, Helvetica, sans-serif" font-weight="700">Claude</text>
  <text x="772" y="88" fill="#E5E7EB" font-size="30" font-family="Arial, Helvetica, sans-serif" font-weight="700">Antigravity</text>
  <rect x="36" y="154" width="1128" height="180" rx="28" fill="#374151"/>
  <text x="74" y="244" fill="#FFFFFF" font-size="72" font-family="Georgia, serif" font-style="italic" font-weight="700">Codex</text>
  <text x="74" y="292" fill="#CBD5E1" font-size="28" font-family="Arial, Helvetica, sans-serif">更新于 5 秒前</text>
  <rect x="684" y="190" width="418" height="92" rx="34" fill="#4B5563"/>
  <text x="724" y="246" fill="#F8FAFC" font-size="30" font-family="Arial, Helvetica, sans-serif" font-weight="700">客户主号 · 163 邮箱</text>
  <text x="990" y="290" fill="#E5E7EB" font-size="24" font-family="Arial, Helvetica, sans-serif">Team</text>
  <rect x="36" y="362" width="1128" height="190" rx="28" fill="#374151"/>
  <text x="74" y="430" fill="#FFFFFF" font-size="38" font-family="Arial, Helvetica, sans-serif" font-weight="700">会话额度</text>
  <rect x="74" y="456" width="1052" height="18" rx="9" fill="#6B7280"/>
  <rect x="74" y="456" width="820" height="18" rx="9" fill="#3B82F6"/>
  <text x="74" y="528" fill="#FFFFFF" font-size="66" font-family="Arial, Helvetica, sans-serif" font-weight="800">剩余 82%</text>
  <text x="1110" y="528" fill="#CBD5E1" font-size="28" font-family="Arial, Helvetica, sans-serif" text-anchor="end">4 小时 50 分钟后重置</text>
  <rect x="36" y="580" width="1128" height="190" rx="28" fill="#374151"/>
  <text x="74" y="648" fill="#FFFFFF" font-size="38" font-family="Arial, Helvetica, sans-serif" font-weight="700">每周额度</text>
  <rect x="74" y="674" width="1052" height="18" rx="9" fill="#6B7280"/>
  <rect x="74" y="674" width="690" height="18" rx="9" fill="#2DD4BF"/>
  <text x="74" y="746" fill="#FFFFFF" font-size="66" font-family="Arial, Helvetica, sans-serif" font-weight="800">剩余 69%</text>
  <text x="1110" y="746" fill="#CBD5E1" font-size="28" font-family="Arial, Helvetica, sans-serif" text-anchor="end">6 天 5 小时后重置</text>
</svg>
